<svg xmlns="http://www.w3.org/2000/svg" xmlns:xlink="http://www.w3.org/1999/xlink" width="180" zoomAndPan="magnify" viewBox="0 0 135 97.5" height="130" preserveAspectRatio="xMidYMid meet" version="1.0"><defs><g/></defs><g fill="#5e376d" fill-opacity="1"><g transform="translate(77.674072, 71.303199)"><g><path d="M 36.53125 -10.234375 C 36.53125 -6.085938 36.671875 -2.675781 36.953125 0 C 34.191406 -0.125 29.546875 -0.1875 23.015625 -0.1875 C 13.515625 -0.1875 6.410156 -0.125 1.703125 0 L 1.703125 -1.21875 C 3.003906 -1.300781 3.945312 -1.460938 4.53125 -1.703125 C 5.125 -1.941406 5.519531 -2.40625 5.71875 -3.09375 C 5.925781 -3.789062 6.03125 -4.910156 6.03125 -6.453125 L 6.03125 -36.65625 C 6.03125 -38.195312 5.914062 -39.3125 5.6875 -40 C 5.46875 -40.695312 5.070312 -41.164062 4.5 -41.40625 C 3.9375 -41.644531 3.003906 -41.804688 1.703125 -41.890625 L 1.703125 -43.109375 C 6.410156 -42.984375 13.515625 -42.921875 23.015625 -42.921875 C 28.984375 -42.921875 33.226562 -42.984375 35.75 -43.109375 C 35.457031 -39.296875 35.3125 -35.882812 35.3125 -32.875 C 35.3125 -31.007812 35.375 -29.550781 35.5 -28.5 L 34.09375 -28.5 C 33.363281 -33.207031 32.003906 -36.582031 30.015625 -38.625 C 28.023438 -40.675781 25.648438 -41.703125 22.890625 -41.703125 L 22.109375 -41.703125 C 21.003906 -41.703125 20.195312 -41.609375 19.6875 -41.421875 C 19.1875 -41.242188 18.84375 -40.898438 18.65625 -40.390625 C 18.476562 -39.890625 18.390625 -39.050781 18.390625 -37.875 L 18.390625 -22.28125 L 19 -22.28125 C 21.113281 -22.28125 22.921875 -23.113281 24.421875 -24.78125 C 25.921875 -26.445312 26.875 -28.296875 27.28125 -30.328125 L 28.671875 -30.328125 C 28.554688 -28.617188 28.5 -26.707031 28.5 -24.59375 L 28.5 -21.671875 C 28.5 -19.609375 28.617188 -16.726562 28.859375 -13.03125 L 27.46875 -13.03125 C 27.09375 -15.34375 26.144531 -17.257812 24.625 -18.78125 C 23.101562 -20.300781 21.226562 -21.0625 19 -21.0625 L 18.390625 -21.0625 L 18.390625 -5.234375 C 18.390625 -4.054688 18.476562 -3.210938 18.65625 -2.703125 C 18.84375 -2.203125 19.1875 -1.859375 19.6875 -1.671875 C 20.195312 -1.492188 21.003906 -1.40625 22.109375 -1.40625 L 24.109375 -1.40625 C 26.460938 -1.40625 28.695312 -2.550781 30.8125 -4.84375 C 32.925781 -7.132812 34.425781 -10.796875 35.3125 -15.828125 L 36.71875 -15.828125 C 36.59375 -14.367188 36.53125 -12.503906 36.53125 -10.234375 Z M 36.53125 -10.234375 "/></g></g></g><g fill="#b283b1" fill-opacity="1"><g transform="translate(45.685653, 70.304864)"><g><path d="M 44.859375 -2.40625 C 43.660156 -1.195312 42.335938 -0.351562 40.890625 0.125 C 39.453125 0.601562 37.769531 0.84375 35.84375 0.84375 C 33.070312 0.84375 30.925781 0.351562 29.40625 -0.625 C 27.882812 -1.613281 26.941406 -3.289062 26.578125 -5.65625 L 25.6875 -11.671875 C 25.28125 -14.472656 24.722656 -16.59375 24.015625 -18.03125 C 23.316406 -19.476562 22.269531 -20.203125 20.875 -20.203125 L 18.15625 -20.203125 L 18.15625 -6.375 C 18.15625 -4.851562 18.265625 -3.75 18.484375 -3.0625 C 18.710938 -2.382812 19.109375 -1.925781 19.671875 -1.6875 C 20.234375 -1.445312 21.15625 -1.285156 22.4375 -1.203125 L 22.4375 0 C 20.101562 -0.125 16.753906 -0.1875 12.390625 -0.1875 C 7.535156 -0.1875 3.96875 -0.125 1.6875 0 L 1.6875 -1.203125 C 2.96875 -1.285156 3.898438 -1.445312 4.484375 -1.6875 C 5.066406 -1.925781 5.457031 -2.382812 5.65625 -3.0625 C 5.851562 -3.75 5.953125 -4.851562 5.953125 -6.375 L 5.953125 -36.203125 C 5.953125 -37.722656 5.84375 -38.820312 5.625 -39.5 C 5.40625 -40.1875 5.015625 -40.648438 4.453125 -40.890625 C 3.890625 -41.128906 2.96875 -41.289062 1.6875 -41.375 L 1.6875 -42.578125 C 3.96875 -42.460938 7.414062 -42.40625 12.03125 -42.40625 L 18.9375 -42.453125 C 19.738281 -42.492188 20.660156 -42.515625 21.703125 -42.515625 C 27.804688 -42.515625 32.347656 -41.648438 35.328125 -39.921875 C 38.316406 -38.203125 39.8125 -35.582031 39.8125 -32.0625 C 39.8125 -29.050781 38.6875 -26.484375 36.4375 -24.359375 C 34.195312 -22.234375 30.429688 -20.929688 25.140625 -20.453125 C 29.222656 -20.171875 32.304688 -19.394531 34.390625 -18.125 C 36.484375 -16.863281 37.769531 -15.007812 38.25 -12.5625 L 39.515625 -6.3125 C 39.796875 -4.832031 40.132812 -3.8125 40.53125 -3.25 C 40.9375 -2.6875 41.5 -2.40625 42.21875 -2.40625 C 42.9375 -2.40625 43.554688 -2.664062 44.078125 -3.1875 Z M 21.40625 -41.375 C 20.488281 -41.375 19.796875 -41.234375 19.328125 -40.953125 C 18.867188 -40.671875 18.554688 -40.171875 18.390625 -39.453125 C 18.234375 -38.734375 18.15625 -37.648438 18.15625 -36.203125 L 18.15625 -21.40625 L 19.78125 -21.40625 C 22.632812 -21.40625 24.582031 -22.273438 25.625 -24.015625 C 26.664062 -25.765625 27.1875 -28.222656 27.1875 -31.390625 C 27.1875 -34.679688 26.734375 -37.164062 25.828125 -38.84375 C 24.929688 -40.53125 23.457031 -41.375 21.40625 -41.375 Z M 21.40625 -41.375 "/></g></g></g><g fill="#5e376d" fill-opacity="1"><g transform="translate(18.866944, 71.303199)"><g><path d="M 18.390625 -43.96875 C 20.703125 -43.96875 22.578125 -43.753906 24.015625 -43.328125 C 25.460938 -42.898438 26.875 -42.300781 28.25 -41.53125 C 28.695312 -41.28125 29.09375 -41.070312 29.4375 -40.90625 C 29.78125 -40.75 30.078125 -40.671875 30.328125 -40.671875 C 30.691406 -40.671875 30.972656 -40.882812 31.171875 -41.3125 C 31.378906 -41.738281 31.539062 -42.421875 31.65625 -43.359375 L 33.0625 -43.359375 C 32.863281 -40.429688 32.765625 -35.476562 32.765625 -28.5 L 31.359375 -28.5 C 31.191406 -30.8125 30.660156 -33.019531 29.765625 -35.125 C 28.878906 -37.238281 27.664062 -38.960938 26.125 -40.296875 C 24.582031 -41.640625 22.796875 -42.3125 20.765625 -42.3125 C 18.898438 -42.3125 17.394531 -41.8125 16.25 -40.8125 C 15.113281 -39.820312 14.546875 -38.4375 14.546875 -36.65625 C 14.546875 -35.269531 14.847656 -34.070312 15.453125 -33.0625 C 16.066406 -32.050781 16.960938 -31.066406 18.140625 -30.109375 C 19.316406 -29.148438 21.25 -27.738281 23.9375 -25.875 C 24.175781 -25.757812 24.40625 -25.617188 24.625 -25.453125 C 24.851562 -25.285156 25.066406 -25.125 25.265625 -24.96875 C 27.503906 -23.425781 29.289062 -22.054688 30.625 -20.859375 C 31.96875 -19.660156 33.054688 -18.269531 33.890625 -16.6875 C 34.722656 -15.101562 35.140625 -13.273438 35.140625 -11.203125 C 35.140625 -8.566406 34.394531 -6.34375 32.90625 -4.53125 C 31.425781 -2.726562 29.425781 -1.378906 26.90625 -0.484375 C 24.394531 0.410156 21.617188 0.859375 18.578125 0.859375 C 16.097656 0.859375 14.035156 0.65625 12.390625 0.25 C 10.742188 -0.15625 9.210938 -0.707031 7.796875 -1.40625 C 6.898438 -1.96875 6.207031 -2.25 5.71875 -2.25 C 5.351562 -2.25 5.066406 -2.035156 4.859375 -1.609375 C 4.660156 -1.179688 4.503906 -0.503906 4.390625 0.421875 L 2.984375 0.421875 C 3.148438 -2.335938 3.234375 -8.222656 3.234375 -17.234375 L 4.625 -17.234375 C 4.90625 -12.398438 5.921875 -8.476562 7.671875 -5.46875 C 9.421875 -2.46875 12.097656 -0.96875 15.703125 -0.96875 C 17.941406 -0.96875 19.71875 -1.492188 21.03125 -2.546875 C 22.351562 -3.609375 23.015625 -5.070312 23.015625 -6.9375 C 23.015625 -9.25 22.289062 -11.226562 20.84375 -12.875 C 19.40625 -14.519531 17.164062 -16.359375 14.125 -18.390625 C 11.6875 -20.015625 9.738281 -21.4375 8.28125 -22.65625 C 6.820312 -23.875 5.625 -25.28125 4.6875 -26.875 C 3.75 -28.476562 3.28125 -30.335938 3.28125 -32.453125 C 3.28125 -35.015625 3.96875 -37.15625 5.34375 -38.875 C 6.726562 -40.601562 8.566406 -41.882812 10.859375 -42.71875 C 13.160156 -43.550781 15.671875 -43.96875 18.390625 -43.96875 Z M 18.390625 -43.96875 "/></g></g></g><path fill="#f8f8ff" d="M 12.207031 44.128906 L 122.789062 44.128906 L 122.789062 53.492188 L 12.207031 53.492188 L 12.207031 44.128906 " fill-opacity="1" fill-rule="nonzero"/><g fill="#5e376d" fill-opacity="1"><g transform="translate(16.412004, 50.287969)"><g><path d="M 2.125 -2.40625 C 2.113281 -2.539062 2.054688 -2.644531 1.953125 -2.71875 C 1.859375 -2.789062 1.722656 -2.828125 1.546875 -2.828125 C 1.378906 -2.828125 1.25 -2.789062 1.15625 -2.71875 C 1.0625 -2.65625 1.015625 -2.566406 1.015625 -2.453125 C 1.003906 -2.335938 1.050781 -2.25 1.15625 -2.1875 C 1.269531 -2.125 1.398438 -2.070312 1.546875 -2.03125 L 1.84375 -1.96875 C 2.039062 -1.914062 2.210938 -1.847656 2.359375 -1.765625 C 2.515625 -1.679688 2.632812 -1.570312 2.71875 -1.4375 C 2.8125 -1.3125 2.859375 -1.15625 2.859375 -0.96875 C 2.859375 -0.65625 2.742188 -0.40625 2.515625 -0.21875 C 2.285156 -0.0390625 1.960938 0.046875 1.546875 0.046875 C 1.140625 0.046875 0.8125 -0.046875 0.5625 -0.234375 C 0.320312 -0.421875 0.195312 -0.695312 0.1875 -1.0625 L 0.875 -1.0625 C 0.882812 -0.894531 0.953125 -0.765625 1.078125 -0.671875 C 1.203125 -0.585938 1.359375 -0.546875 1.546875 -0.546875 C 1.722656 -0.546875 1.863281 -0.582031 1.96875 -0.65625 C 2.082031 -0.738281 2.140625 -0.84375 2.140625 -0.96875 C 2.140625 -1.082031 2.085938 -1.171875 1.984375 -1.234375 C 1.890625 -1.296875 1.75 -1.347656 1.5625 -1.390625 L 1.203125 -1.484375 C 0.910156 -1.554688 0.679688 -1.664062 0.515625 -1.8125 C 0.347656 -1.957031 0.269531 -2.15625 0.28125 -2.40625 C 0.269531 -2.613281 0.320312 -2.789062 0.4375 -2.9375 C 0.550781 -3.09375 0.703125 -3.210938 0.890625 -3.296875 C 1.085938 -3.390625 1.3125 -3.4375 1.5625 -3.4375 C 1.8125 -3.4375 2.03125 -3.390625 2.21875 -3.296875 C 2.40625 -3.210938 2.550781 -3.09375 2.65625 -2.9375 C 2.757812 -2.789062 2.8125 -2.613281 2.8125 -2.40625 Z M 2.125 -2.40625 "/></g></g></g><g fill="#5e376d" fill-opacity="1"><g transform="translate(20.409849, 50.287969)"><g><path d="M 0.171875 -2.796875 L 0.171875 -3.390625 L 2.953125 -3.390625 L 2.953125 -2.796875 L 1.90625 -2.796875 L 1.90625 0 L 1.203125 0 L 1.203125 -2.796875 Z M 0.171875 -2.796875 "/></g></g></g><g fill="#5e376d" fill-opacity="1"><g transform="translate(24.470504, 50.287969)"><g><path d="M 0.296875 0 L 0.296875 -3.390625 L 2.578125 -3.390625 L 2.578125 -2.796875 L 1.015625 -2.796875 L 1.015625 -1.984375 L 2.453125 -1.984375 L 2.453125 -1.40625 L 1.015625 -1.40625 L 1.015625 -0.59375 L 2.578125 -0.59375 L 2.578125 0 Z M 0.296875 0 "/></g></g></g><g fill="#5e376d" fill-opacity="1"><g transform="translate(28.271649, 50.287969)"><g><path d="M 0.296875 0 L 0.296875 -3.390625 L 1.625 -3.390625 C 1.882812 -3.390625 2.101562 -3.335938 2.28125 -3.234375 C 2.46875 -3.140625 2.609375 -3.003906 2.703125 -2.828125 C 2.796875 -2.660156 2.84375 -2.460938 2.84375 -2.234375 C 2.84375 -2.015625 2.789062 -1.816406 2.6875 -1.640625 C 2.59375 -1.472656 2.453125 -1.335938 2.265625 -1.234375 C 2.085938 -1.140625 1.867188 -1.09375 1.609375 -1.09375 L 1.015625 -1.09375 L 1.015625 0 Z M 1.015625 -1.671875 L 1.5 -1.671875 C 1.695312 -1.671875 1.847656 -1.722656 1.953125 -1.828125 C 2.054688 -1.929688 2.109375 -2.066406 2.109375 -2.234375 C 2.109375 -2.398438 2.054688 -2.535156 1.953125 -2.640625 C 1.847656 -2.742188 1.695312 -2.796875 1.5 -2.796875 L 1.015625 -2.796875 Z M 1.015625 -1.671875 "/></g></g></g><g fill="#5e376d" fill-opacity="1"><g transform="translate(32.236436, 50.287969)"><g><path d="M 0.296875 0 L 0.296875 -3.390625 L 1.015625 -3.390625 L 1.015625 -1.984375 L 2.46875 -1.984375 L 2.46875 -3.390625 L 3.171875 -3.390625 L 3.171875 0 L 2.46875 0 L 2.46875 -1.40625 L 1.015625 -1.40625 L 1.015625 0 Z M 0.296875 0 "/></g></g></g><g fill="#5e376d" fill-opacity="1"><g transform="translate(36.659082, 50.287969)"><g><path d="M 0.875 0 L 0.109375 0 L 1.28125 -3.390625 L 2.203125 -3.390625 L 3.375 0 L 2.609375 0 L 2.34375 -0.765625 L 1.125 -0.765625 Z M 1.3125 -1.328125 L 2.171875 -1.328125 L 1.75 -2.609375 L 1.734375 -2.609375 Z M 1.3125 -1.328125 "/></g></g></g><g fill="#5e376d" fill-opacity="1"><g transform="translate(41.089992, 50.287969)"><g><path d="M 3.125 -3.390625 L 3.125 0 L 2.515625 0 L 1.03125 -2.125 L 1.015625 -2.125 L 1.015625 0 L 0.296875 0 L 0.296875 -3.390625 L 0.921875 -3.390625 L 2.390625 -1.25 L 2.40625 -1.25 L 2.40625 -3.390625 Z M 3.125 -3.390625 "/></g></g></g><g fill="#5e376d" fill-opacity="1"><g transform="translate(45.461398, 50.287969)"><g><path d="M 0.09375 -3.390625 L 0.890625 -3.390625 L 1.671875 -1.921875 L 1.703125 -1.921875 L 2.46875 -3.390625 L 3.28125 -3.390625 L 2.046875 -1.203125 L 2.046875 0 L 1.328125 0 L 1.328125 -1.203125 Z M 0.09375 -3.390625 "/></g></g></g><g fill="#5e376d" fill-opacity="1"><g transform="translate(49.783217, 50.287969)"><g/></g></g><g fill="#5e376d" fill-opacity="1"><g transform="translate(51.812422, 50.287969)"><g><path d="M 0.296875 0 L 0.296875 -3.390625 L 1.625 -3.390625 C 2.007812 -3.390625 2.304688 -3.285156 2.515625 -3.078125 C 2.734375 -2.878906 2.84375 -2.613281 2.84375 -2.28125 C 2.84375 -2.050781 2.789062 -1.851562 2.6875 -1.6875 C 2.582031 -1.519531 2.4375 -1.394531 2.25 -1.3125 L 2.96875 0 L 2.171875 0 L 1.53125 -1.203125 L 1.015625 -1.203125 L 1.015625 0 Z M 1.015625 -1.78125 L 1.5 -1.78125 C 1.90625 -1.78125 2.109375 -1.945312 2.109375 -2.28125 C 2.109375 -2.625 1.90625 -2.796875 1.5 -2.796875 L 1.015625 -2.796875 Z M 1.015625 -1.78125 "/></g></g></g><g fill="#5e376d" fill-opacity="1"><g transform="translate(55.816878, 50.287969)"><g><path d="M 0.875 0 L 0.109375 0 L 1.28125 -3.390625 L 2.203125 -3.390625 L 3.375 0 L 2.609375 0 L 2.34375 -0.765625 L 1.125 -0.765625 Z M 1.3125 -1.328125 L 2.171875 -1.328125 L 1.75 -2.609375 L 1.734375 -2.609375 Z M 1.3125 -1.328125 "/></g></g></g><g fill="#5e376d" fill-opacity="1"><g transform="translate(60.247787, 50.287969)"><g><path d="M 0.296875 -3.390625 L 1.171875 -3.390625 L 2.109375 -1.109375 L 2.15625 -1.109375 L 3.078125 -3.390625 L 3.96875 -3.390625 L 3.96875 0 L 3.265625 0 L 3.265625 -2.203125 L 3.25 -2.203125 L 2.359375 -0.015625 L 1.890625 -0.015625 L 1.015625 -2.21875 L 0.984375 -2.21875 L 0.984375 0 L 0.296875 0 Z M 0.296875 -3.390625 "/></g></g></g><g fill="#5e376d" fill-opacity="1"><g transform="translate(65.498549, 50.287969)"><g><path d="M 1.015625 -3.390625 L 1.015625 0 L 0.296875 0 L 0.296875 -3.390625 Z M 1.015625 -3.390625 "/></g></g></g><g fill="#5e376d" fill-opacity="1"><g transform="translate(67.75421, 50.287969)"><g><path d="M 0.296875 0 L 0.296875 -3.390625 L 1.625 -3.390625 C 2.007812 -3.390625 2.304688 -3.285156 2.515625 -3.078125 C 2.734375 -2.878906 2.84375 -2.613281 2.84375 -2.28125 C 2.84375 -2.050781 2.789062 -1.851562 2.6875 -1.6875 C 2.582031 -1.519531 2.4375 -1.394531 2.25 -1.3125 L 2.96875 0 L 2.171875 0 L 1.53125 -1.203125 L 1.015625 -1.203125 L 1.015625 0 Z M 1.015625 -1.78125 L 1.5 -1.78125 C 1.90625 -1.78125 2.109375 -1.945312 2.109375 -2.28125 C 2.109375 -2.625 1.90625 -2.796875 1.5 -2.796875 L 1.015625 -2.796875 Z M 1.015625 -1.78125 "/></g></g></g><g fill="#5e376d" fill-opacity="1"><g transform="translate(71.758666, 50.287969)"><g><path d="M 0.296875 0 L 0.296875 -3.390625 L 2.578125 -3.390625 L 2.578125 -2.796875 L 1.015625 -2.796875 L 1.015625 -1.984375 L 2.453125 -1.984375 L 2.453125 -1.40625 L 1.015625 -1.40625 L 1.015625 -0.59375 L 2.578125 -0.59375 L 2.578125 0 Z M 0.296875 0 "/></g></g></g><g fill="#5e376d" fill-opacity="1"><g transform="translate(75.559812, 50.287969)"><g><path d="M 0.265625 0 L 0.265625 -0.421875 L 1.953125 -2.796875 L 0.25 -2.796875 L 0.25 -3.390625 L 2.84375 -3.390625 L 2.84375 -2.96875 L 1.15625 -0.59375 L 2.84375 -0.59375 L 2.84375 0 Z M 0.265625 0 "/></g></g></g><g fill="#5e376d" fill-opacity="1"><g transform="translate(79.613856, 50.287969)"><g/></g></g><g fill="#5e376d" fill-opacity="1"><g transform="translate(81.643063, 50.287969)"><g><path d="M 0.296875 0 L 0.296875 -3.390625 L 2.578125 -3.390625 L 2.578125 -2.796875 L 1.015625 -2.796875 L 1.015625 -1.984375 L 2.453125 -1.984375 L 2.453125 -1.40625 L 1.015625 -1.40625 L 1.015625 -0.59375 L 2.578125 -0.59375 L 2.578125 0 Z M 0.296875 0 "/></g></g></g><g fill="#5e376d" fill-opacity="1"><g transform="translate(85.444208, 50.287969)"><g><path d="M 2.125 -2.40625 C 2.113281 -2.539062 2.054688 -2.644531 1.953125 -2.71875 C 1.859375 -2.789062 1.722656 -2.828125 1.546875 -2.828125 C 1.378906 -2.828125 1.25 -2.789062 1.15625 -2.71875 C 1.0625 -2.65625 1.015625 -2.566406 1.015625 -2.453125 C 1.003906 -2.335938 1.050781 -2.25 1.15625 -2.1875 C 1.269531 -2.125 1.398438 -2.070312 1.546875 -2.03125 L 1.84375 -1.96875 C 2.039062 -1.914062 2.210938 -1.847656 2.359375 -1.765625 C 2.515625 -1.679688 2.632812 -1.570312 2.71875 -1.4375 C 2.8125 -1.3125 2.859375 -1.15625 2.859375 -0.96875 C 2.859375 -0.65625 2.742188 -0.40625 2.515625 -0.21875 C 2.285156 -0.0390625 1.960938 0.046875 1.546875 0.046875 C 1.140625 0.046875 0.8125 -0.046875 0.5625 -0.234375 C 0.320312 -0.421875 0.195312 -0.695312 0.1875 -1.0625 L 0.875 -1.0625 C 0.882812 -0.894531 0.953125 -0.765625 1.078125 -0.671875 C 1.203125 -0.585938 1.359375 -0.546875 1.546875 -0.546875 C 1.722656 -0.546875 1.863281 -0.582031 1.96875 -0.65625 C 2.082031 -0.738281 2.140625 -0.84375 2.140625 -0.96875 C 2.140625 -1.082031 2.085938 -1.171875 1.984375 -1.234375 C 1.890625 -1.296875 1.75 -1.347656 1.5625 -1.390625 L 1.203125 -1.484375 C 0.910156 -1.554688 0.679688 -1.664062 0.515625 -1.8125 C 0.347656 -1.957031 0.269531 -2.15625 0.28125 -2.40625 C 0.269531 -2.613281 0.320312 -2.789062 0.4375 -2.9375 C 0.550781 -3.09375 0.703125 -3.210938 0.890625 -3.296875 C 1.085938 -3.390625 1.3125 -3.4375 1.5625 -3.4375 C 1.8125 -3.4375 2.03125 -3.390625 2.21875 -3.296875 C 2.40625 -3.210938 2.550781 -3.09375 2.65625 -2.9375 C 2.757812 -2.789062 2.8125 -2.613281 2.8125 -2.40625 Z M 2.125 -2.40625 "/></g></g></g><g fill="#5e376d" fill-opacity="1"><g transform="translate(89.442049, 50.287969)"><g><path d="M 3.28125 -2.203125 L 2.5625 -2.203125 C 2.53125 -2.390625 2.445312 -2.535156 2.3125 -2.640625 C 2.1875 -2.742188 2.023438 -2.796875 1.828125 -2.796875 C 1.566406 -2.796875 1.351562 -2.695312 1.1875 -2.5 C 1.03125 -2.3125 0.953125 -2.039062 0.953125 -1.6875 C 0.953125 -1.332031 1.03125 -1.0625 1.1875 -0.875 C 1.351562 -0.6875 1.566406 -0.59375 1.828125 -0.59375 C 2.015625 -0.59375 2.171875 -0.640625 2.296875 -0.734375 C 2.429688 -0.835938 2.519531 -0.976562 2.5625 -1.15625 L 3.28125 -1.15625 C 3.257812 -0.945312 3.1875 -0.75 3.0625 -0.5625 C 2.9375 -0.382812 2.769531 -0.238281 2.5625 -0.125 C 2.351562 -0.0078125 2.101562 0.046875 1.8125 0.046875 C 1.507812 0.046875 1.238281 -0.0195312 1 -0.15625 C 0.757812 -0.289062 0.570312 -0.488281 0.4375 -0.75 C 0.300781 -1.007812 0.234375 -1.320312 0.234375 -1.6875 C 0.234375 -2.0625 0.300781 -2.378906 0.4375 -2.640625 C 0.582031 -2.898438 0.769531 -3.097656 1 -3.234375 C 1.238281 -3.367188 1.507812 -3.4375 1.8125 -3.4375 C 2.070312 -3.4375 2.304688 -3.382812 2.515625 -3.28125 C 2.722656 -3.1875 2.894531 -3.046875 3.03125 -2.859375 C 3.164062 -2.679688 3.25 -2.460938 3.28125 -2.203125 Z M 3.28125 -2.203125 "/></g></g></g><g fill="#5e376d" fill-opacity="1"><g transform="translate(93.892797, 50.287969)"><g><path d="M 0.875 0 L 0.109375 0 L 1.28125 -3.390625 L 2.203125 -3.390625 L 3.375 0 L 2.609375 0 L 2.34375 -0.765625 L 1.125 -0.765625 Z M 1.3125 -1.328125 L 2.171875 -1.328125 L 1.75 -2.609375 L 1.734375 -2.609375 Z M 1.3125 -1.328125 "/></g></g></g><g fill="#5e376d" fill-opacity="1"><g transform="translate(98.323706, 50.287969)"><g><path d="M 0.296875 0 L 0.296875 -3.390625 L 1.625 -3.390625 C 2.007812 -3.390625 2.304688 -3.285156 2.515625 -3.078125 C 2.734375 -2.878906 2.84375 -2.613281 2.84375 -2.28125 C 2.84375 -2.050781 2.789062 -1.851562 2.6875 -1.6875 C 2.582031 -1.519531 2.4375 -1.394531 2.25 -1.3125 L 2.96875 0 L 2.171875 0 L 1.53125 -1.203125 L 1.015625 -1.203125 L 1.015625 0 Z M 1.015625 -1.78125 L 1.5 -1.78125 C 1.90625 -1.78125 2.109375 -1.945312 2.109375 -2.28125 C 2.109375 -2.625 1.90625 -2.796875 1.5 -2.796875 L 1.015625 -2.796875 Z M 1.015625 -1.78125 "/></g></g></g><g fill="#5e376d" fill-opacity="1"><g transform="translate(102.328163, 50.287969)"><g><path d="M 2.546875 -2.296875 C 2.492188 -2.453125 2.40625 -2.570312 2.28125 -2.65625 C 2.164062 -2.75 2.015625 -2.796875 1.828125 -2.796875 C 1.566406 -2.796875 1.351562 -2.695312 1.1875 -2.5 C 1.03125 -2.3125 0.953125 -2.046875 0.953125 -1.703125 C 0.953125 -1.347656 1.03125 -1.070312 1.1875 -0.875 C 1.351562 -0.6875 1.570312 -0.59375 1.84375 -0.59375 C 2.070312 -0.59375 2.253906 -0.648438 2.390625 -0.765625 C 2.535156 -0.890625 2.609375 -1.054688 2.609375 -1.265625 L 1.875 -1.265625 L 1.875 -1.8125 L 3.296875 -1.8125 L 3.296875 -1.390625 C 3.296875 -1.085938 3.234375 -0.828125 3.109375 -0.609375 C 2.984375 -0.398438 2.8125 -0.238281 2.59375 -0.125 C 2.375 -0.0078125 2.117188 0.046875 1.828125 0.046875 C 1.515625 0.046875 1.238281 -0.0195312 1 -0.15625 C 0.757812 -0.300781 0.570312 -0.503906 0.4375 -0.765625 C 0.300781 -1.023438 0.234375 -1.332031 0.234375 -1.6875 C 0.234375 -2.050781 0.300781 -2.363281 0.4375 -2.625 C 0.582031 -2.882812 0.773438 -3.082031 1.015625 -3.21875 C 1.253906 -3.363281 1.519531 -3.4375 1.8125 -3.4375 C 2.070312 -3.4375 2.304688 -3.382812 2.515625 -3.28125 C 2.722656 -3.1875 2.890625 -3.050781 3.015625 -2.875 C 3.148438 -2.707031 3.234375 -2.515625 3.265625 -2.296875 Z M 2.546875 -2.296875 "/></g></g></g><g fill="#5e376d" fill-opacity="1"><g transform="translate(106.818579, 50.287969)"><g><path d="M 0.296875 0 L 0.296875 -3.390625 L 2.578125 -3.390625 L 2.578125 -2.796875 L 1.015625 -2.796875 L 1.015625 -1.984375 L 2.453125 -1.984375 L 2.453125 -1.40625 L 1.015625 -1.40625 L 1.015625 -0.59375 L 2.578125 -0.59375 L 2.578125 0 Z M 0.296875 0 "/></g></g></g><g fill="#5e376d" fill-opacity="1"><g transform="translate(110.619725, 50.287969)"><g><path d="M 2.546875 -2.296875 C 2.492188 -2.453125 2.40625 -2.570312 2.28125 -2.65625 C 2.164062 -2.75 2.015625 -2.796875 1.828125 -2.796875 C 1.566406 -2.796875 1.351562 -2.695312 1.1875 -2.5 C 1.03125 -2.3125 0.953125 -2.046875 0.953125 -1.703125 C 0.953125 -1.347656 1.03125 -1.070312 1.1875 -0.875 C 1.351562 -0.6875 1.570312 -0.59375 1.84375 -0.59375 C 2.070312 -0.59375 2.253906 -0.648438 2.390625 -0.765625 C 2.535156 -0.890625 2.609375 -1.054688 2.609375 -1.265625 L 1.875 -1.265625 L 1.875 -1.8125 L 3.296875 -1.8125 L 3.296875 -1.390625 C 3.296875 -1.085938 3.234375 -0.828125 3.109375 -0.609375 C 2.984375 -0.398438 2.8125 -0.238281 2.59375 -0.125 C 2.375 -0.0078125 2.117188 0.046875 1.828125 0.046875 C 1.515625 0.046875 1.238281 -0.0195312 1 -0.15625 C 0.757812 -0.300781 0.570312 -0.503906 0.4375 -0.765625 C 0.300781 -1.023438 0.234375 -1.332031 0.234375 -1.6875 C 0.234375 -2.050781 0.300781 -2.363281 0.4375 -2.625 C 0.582031 -2.882812 0.773438 -3.082031 1.015625 -3.21875 C 1.253906 -3.363281 1.519531 -3.4375 1.8125 -3.4375 C 2.070312 -3.4375 2.304688 -3.382812 2.515625 -3.28125 C 2.722656 -3.1875 2.890625 -3.050781 3.015625 -2.875 C 3.148438 -2.707031 3.234375 -2.515625 3.265625 -2.296875 Z M 2.546875 -2.296875 "/></g></g></g><g fill="#5e376d" fill-opacity="1"><g transform="translate(115.110141, 50.287969)"><g><path d="M 0.875 0 L 0.109375 0 L 1.28125 -3.390625 L 2.203125 -3.390625 L 3.375 0 L 2.609375 0 L 2.34375 -0.765625 L 1.125 -0.765625 Z M 1.3125 -1.328125 L 2.171875 -1.328125 L 1.75 -2.609375 L 1.734375 -2.609375 Z M 1.3125 -1.328125 "/></g></g></g></svg>